<?xml version="1.0" encoding="UTF-8" standalone="no"?>
<!-- Svg Vector Icons : http://www.onlinewebfonts.com/icon -->

<svg
   xmlns:dc="http://purl.org/dc/elements/1.1/"
   xmlns:cc="http://creativecommons.org/ns#"
   xmlns:rdf="http://www.w3.org/1999/02/22-rdf-syntax-ns#"
   xmlns:svg="http://www.w3.org/2000/svg"
   xmlns="http://www.w3.org/2000/svg"
   xmlns:sodipodi="http://sodipodi.sourceforge.net/DTD/sodipodi-0.dtd"
   xmlns:inkscape="http://www.inkscape.org/namespaces/inkscape"
   version="1.1"
   x="0px"
   y="0px"
   viewBox="0 0 300 100"
   enable-background="new 0 0 1000 1000"
   xml:space="preserve"
   id="svg40"
   sodipodi:docname="logo_friga.svg"
   width="300"
   height="100"
   inkscape:version="0.92.4 (5da689c313, 2019-01-14)"><defs
   id="defs44" /><sodipodi:namedview
   pagecolor="#ffffff"
   bordercolor="#666666"
   borderopacity="1"
   objecttolerance="10"
   gridtolerance="10"
   guidetolerance="10"
   inkscape:pageopacity="0"
   inkscape:pageshadow="2"
   inkscape:window-width="1890"
   inkscape:window-height="1051"
   id="namedview42"
   showgrid="false"
   inkscape:zoom="2.6700352"
   inkscape:cx="103.29411"
   inkscape:cy="-12.925038"
   inkscape:window-x="1080"
   inkscape:window-y="8"
   inkscape:window-maximized="1"
   inkscape:current-layer="svg40" />
<metadata
   id="metadata2"> Svg Vector Icons : http://www.onlinewebfonts.com/icon <rdf:RDF><cc:Work
     rdf:about=""><dc:format>image/svg+xml</dc:format><dc:type
       rdf:resource="http://purl.org/dc/dcmitype/StillImage" /><dc:title></dc:title></cc:Work></rdf:RDF></metadata>

<g
   aria-label="Friga"
   transform="matrix(1.6487908,0,0,1.6484987,-271.42864,-21.735079)"
   style="font-style:normal;font-variant:normal;font-weight:normal;font-stretch:normal;font-size:40px;line-height:125%;font-family:Roboto;-inkscape-font-specification:Roboto;letter-spacing:0px;word-spacing:0px;fill:#000000;fill-opacity:1;stroke:none;stroke-width:1px;stroke-linecap:butt;stroke-linejoin:miter;stroke-opacity:1"
   id="flowRoot851"><g
     id="g867"
     transform="matrix(1.0383666,0,0,1.0383666,-3.1591172,1.0012423)"><path
       id="path966"
       style="font-style:normal;font-variant:normal;font-weight:900;font-stretch:normal;font-family:Roboto;-inkscape-font-specification:'Roboto Heavy';fill:#28170b"
       d="m 163.21484,52.513244 v -28.4375 h 19.02344 v 5.292969 h -12.16797 v 6.542968 H 181.125 v 5.273438 h -11.05469 v 11.328125 z"
       inkscape:connector-curvature="0" /><path
       id="path968"
       style="font-style:normal;font-variant:normal;font-weight:900;font-stretch:normal;font-family:Roboto;-inkscape-font-specification:'Roboto Heavy';fill:#28170b"
       d="m 194.91406,37.181213 q -3.08594,0 -3.96484,1.933593 v 13.398438 h -6.58203 V 31.380431 h 6.15234 l 0.21484,2.695313 q 1.66016,-3.085938 4.64844,-3.085938 1.09375,0 1.81641,0.234375 l -0.11719,6.113282 z"
       inkscape:connector-curvature="0" /><path
       id="path970"
       style="font-style:normal;font-variant:normal;font-weight:900;font-stretch:normal;font-family:Roboto;-inkscape-font-specification:'Roboto Heavy';fill:#28170b"
       d="m 199.42578,25.931213 q 0,-1.40625 1.01563,-2.304688 1.01562,-0.898437 2.63671,-0.898437 1.6211,0 2.63672,0.898437 1.01563,0.898438 1.01563,2.304688 0,1.40625 -1.01563,2.304687 -1.01562,0.898438 -2.63672,0.898438 -1.62109,0 -2.63671,-0.898438 -1.01563,-0.898437 -1.01563,-2.304687 z m 6.99219,5.449218 v 21.132813 h -6.60156 V 31.380431 Z"
       inkscape:connector-curvature="0" /><path
       id="path972"
       style="font-style:normal;font-variant:normal;font-weight:900;font-stretch:normal;font-family:Roboto;-inkscape-font-specification:'Roboto Heavy';fill:#28170b"
       d="m 218.99609,60.833556 q -2.1289,0 -4.33593,-0.800781 -2.20704,-0.800781 -3.51563,-2.363281 l 2.75391,-3.867188 q 1.89453,2.167969 4.86328,2.167969 4.3164,0 4.375,-4.199219 v -0.976562 q -1.85547,2.109375 -4.80469,2.109375 -4.00391,0 -6.30859,-3.046875 -2.30469,-3.046875 -2.30469,-7.65625 v -0.410156 q 0,-4.824219 2.30469,-7.8125 2.32422,-2.988282 6.34765,-2.988282 3.32032,0 5.15625,2.207032 l 0.23438,-1.816407 h 5.97656 v 20.3125 q 0,4.394532 -2.96875,6.757813 -2.94922,2.382812 -7.77344,2.382812 z m -2.69531,-18.632812 q 0,2.382812 0.91797,4.003906 0.91797,1.621094 2.79297,1.621094 2.14844,0 3.125,-1.445313 v -8.867187 q -0.9375,-1.445313 -3.08594,-1.445313 -1.85547,0 -2.8125,1.621094 -0.9375,1.621094 -0.9375,4.511719 z"
       inkscape:connector-curvature="0" /><path
       id="path974"
       style="font-style:normal;font-variant:normal;font-weight:900;font-stretch:normal;font-family:Roboto;-inkscape-font-specification:'Roboto Heavy';fill:#28170b"
       d="m 245.42187,52.513244 q -0.37109,-0.761719 -0.60546,-1.894531 -1.81641,2.285156 -5.07813,2.285156 -2.92969,0 -5.05859,-1.757813 -2.10938,-1.777343 -2.10938,-4.589843 0,-3.222657 2.34375,-5.058594 2.36328,-1.855469 7.34375,-1.894531 h 2.2461 v -1.113282 q 0,-2.910156 -2.51954,-2.910156 -2.34375,0 -2.34375,2.304688 h -6.58203 q 0,-2.949219 2.51953,-4.921875 2.51954,-1.972657 6.75782,-1.972657 3.76953,0 6.26953,1.894532 2.51953,1.875 2.51953,5.644531 v 9.199219 q 0.0391,2.871093 0.89844,4.453125 v 0.332031 z m -4.12109,-4.296875 q 1.21094,0 2.03125,-0.507813 0.82031,-0.527343 1.17188,-1.171875 v -3.417968 h -2.07032 q -1.85547,0 -2.57812,0.957031 -0.70313,0.9375 -0.70313,2.128906 0,0.898438 0.60547,1.464844 0.625,0.546875 1.54297,0.546875 z"
       inkscape:connector-curvature="0" /></g></g><g
   id="g38"
   style="fill:#2b1100;stroke:#ffffff;stroke-width:0;stroke-miterlimit:4;stroke-dasharray:none;stroke-opacity:1"
   transform="matrix(0.15710232,0,0,0.15710232,384.25276,-99.09929)"><g
     id="g6"
     style="fill:#2b1100;stroke:#ffffff;stroke-width:0;stroke-miterlimit:4;stroke-dasharray:none;stroke-opacity:1"><path
       d="m -1521.9369,1157.0756 c 7.2,-18.4 79.8,-26.3 123.7,-131.7 43.9,-105.29997 70.2,-252.19997 178,-307.29997 107.8,-55.1 210.6999,-120.9 342.49992,47.9 69.4,103 202.4,63.5 202.4,63.5 0,0 8.4,-46.7 41.9,-49.1 0,0 13.2,33.5 7.2,65.9 0.3,9.6 34.7,-19.2 41.9,-8.4 0,0 8.8,6.8 -18.4,52.7 45.3,78.4 9.7,82.4 1.6,135.89997 -7.5,10 -64.3,5.4 -101.8,-17.4 0,0 -36.8,-18.29997 -41.6,-17.99997 -4.8,0.3 -20.7,78.19997 -19.8,88.59997 0,0 103,68.6 137.3,73.4 34.3,4.8 99.80001,31.9 80.6,67.9 -19.2,35.9 -77.4,-11.2 -79.8,-12.8 -2.4,-1.6 -207.5,-41.5 -224.3,-86.2 0,0 -31.9,-89.4 -41.5,-93.4 0,0 -42.5,93.3 -5.1,125.3 0,0 26.3,8.7 16.5,30.5 -4.7,6.6 -39.7,4.2 -47.3,4.6 -7.6,0.4 -20.3,-7.2 -22,-34.3 -1.6,-27.1 -13.2,-189.19997 -13.2,-189.19997 0,0 -55.90002,-57.1 -84.20002,-61.9 -20.3,-4.4 -21.6,35.5 -23.5,41.5 -2,6 -40.8999,141.69997 -18.7999,177.59997 22.0999,35.9 49.0999,44.6 54.4999,45.2 5.4,0.6 41.00002,9.3 41.00002,27.2 0,18 -39.20002,39.3 -91.09992,-4.6 -51.9,-43.9 -71.4,-67.9 -71.4,-67.9 0,0 -26.7,29.1 -59.5,-6.8 -14.4,-16.4 -27.6,-112.6 -28.7,-115.3 -1.2,-2.8 -7.2,-21.59997 26.8,-44.29997 18,-20.8 -37.5,-45.1 -37.5,-103.8 0.4,-25.1 -92.2,174.39997 -92.2,174.39997 0,0 -39.9,96.6 -95.8,128.5 -56.1,32.2 -85.6,20.2 -78.4,1.8 z m 336.8,-86.6 c 0,0 2.8,16 11.6,23.1 0,0 -9.2,-57.1 -9.2,-65.5 0,0.1 -13.5,-3.1 -2.4,42.4 z"
       id="path4"
       style="fill:#2b1100;stroke:#ffffff;stroke-width:4.65873337;stroke-miterlimit:4;stroke-dasharray:none;stroke-opacity:1"
       inkscape:connector-curvature="0" /></g><g
     id="g8"
     style="fill:#2b1100;stroke:#ffffff;stroke-width:0;stroke-miterlimit:4;stroke-dasharray:none;stroke-opacity:1" /><g
     id="g10"
     style="fill:#2b1100;stroke:#ffffff;stroke-width:0;stroke-miterlimit:4;stroke-dasharray:none;stroke-opacity:1" /><g
     id="g12"
     style="fill:#2b1100;stroke:#ffffff;stroke-width:0;stroke-miterlimit:4;stroke-dasharray:none;stroke-opacity:1" /><g
     id="g14"
     style="fill:#2b1100;stroke:#ffffff;stroke-width:0;stroke-miterlimit:4;stroke-dasharray:none;stroke-opacity:1" /><g
     id="g16"
     style="fill:#2b1100;stroke:#ffffff;stroke-width:0;stroke-miterlimit:4;stroke-dasharray:none;stroke-opacity:1" /><g
     id="g18"
     style="fill:#2b1100;stroke:#ffffff;stroke-width:0;stroke-miterlimit:4;stroke-dasharray:none;stroke-opacity:1" /><g
     id="g20"
     style="fill:#2b1100;stroke:#ffffff;stroke-width:0;stroke-miterlimit:4;stroke-dasharray:none;stroke-opacity:1" /><g
     id="g22"
     style="fill:#2b1100;stroke:#ffffff;stroke-width:0;stroke-miterlimit:4;stroke-dasharray:none;stroke-opacity:1" /><g
     id="g24"
     style="fill:#2b1100;stroke:#ffffff;stroke-width:0;stroke-miterlimit:4;stroke-dasharray:none;stroke-opacity:1" /><g
     id="g26"
     style="fill:#2b1100;stroke:#ffffff;stroke-width:0;stroke-miterlimit:4;stroke-dasharray:none;stroke-opacity:1" /><g
     id="g28"
     style="fill:#2b1100;stroke:#ffffff;stroke-width:0;stroke-miterlimit:4;stroke-dasharray:none;stroke-opacity:1" /><g
     id="g30"
     style="fill:#2b1100;stroke:#ffffff;stroke-width:0;stroke-miterlimit:4;stroke-dasharray:none;stroke-opacity:1" /><g
     id="g32"
     style="fill:#2b1100;stroke:#ffffff;stroke-width:0;stroke-miterlimit:4;stroke-dasharray:none;stroke-opacity:1" /><g
     id="g34"
     style="fill:#2b1100;stroke:#ffffff;stroke-width:0;stroke-miterlimit:4;stroke-dasharray:none;stroke-opacity:1" /><g
     id="g36"
     style="fill:#2b1100;stroke:#ffffff;stroke-width:0;stroke-miterlimit:4;stroke-dasharray:none;stroke-opacity:1" /></g></svg>