<?xml version="1.0" encoding="utf-8"?>
<!-- Generator: Adobe Illustrator 19.1.1, SVG Export Plug-In . SVG Version: 6.00 Build 0)  -->
<svg version="1.0" id="Camada_1" xmlns="http://www.w3.org/2000/svg" xmlns:xlink="http://www.w3.org/1999/xlink" x="0px" y="0px"
	 viewBox="0 0 334.5 125" style="enable-background:new 0 0 334.5 125;" xml:space="preserve">
<style type="text/css">
	.st0{fill:#FFFFFF;}
</style>
<g>
	<g>
		<path class="st0" d="M148.2,20.7h3.8l7.1,16.7h0.6V20.7h2v18.5h-3.8l-7.2-16.7h-0.5v16.7h-2.1V20.7z"/>
		<path class="st0" d="M172.5,37.7c2.9,0,4.5-1.1,4.5-4V20.7h2v12.9c0,4.2-2.3,5.9-6.5,5.9c-4.1,0-6.4-1.6-6.4-5.9V20.7h2.1v12.9
			C168.2,36.5,169.8,37.7,172.5,37.7z M175,14.3l0.7,1.8l-5.9,2.3l-0.6-1.4L175,14.3z"/>
		<path class="st0" d="M194.6,38.9c-1.3,0.3-3.3,0.6-5.1,0.6c-5.5,0-6.8-3.4-6.8-9.5c0-6.3,1.2-9.6,6.8-9.6c1.9,0,3.9,0.3,5.1,0.6
			l-0.1,1.7c-1.2-0.2-3.4-0.5-4.8-0.5c-4.1,0-4.8,2.5-4.8,7.7c0,5.2,0.7,7.6,4.9,7.6c1.5,0,3.5-0.2,4.8-0.5L194.6,38.9z"/>
		<path class="st0" d="M198,39.2V20.7h2.1v16.6h8.1v1.8H198z"/>
		<path class="st0" d="M210.8,20.7H222v1.8h-9.2v6.4h7.6v1.8h-7.6v6.7h9.2v1.8h-11.2V20.7z"/>
		<path class="st0" d="M224.6,30c0-6.1,1.6-9.6,7.3-9.6c5.7,0,7.3,3.4,7.3,9.6c0,6.4-1.6,9.4-7.3,9.4
			C226.1,39.5,224.6,36.2,224.6,30z M237.1,30c0-5-1-7.8-5.2-7.8c-4.2,0-5.2,2.8-5.2,7.8c0,5.1,0.9,7.6,5.2,7.6
			C236.2,37.7,237.1,35.3,237.1,30z"/>
		<path class="st0" d="M147.9,63.8V45.6h6.1c6.3,0,7.7,2.7,7.7,8.7c0,6.2-1.2,9.4-7.7,9.4H147.9z M154,48.8h-2.4v11.8h2.4
			c3.6,0,3.9-2.2,3.9-6.2C157.9,50.3,157.6,48.8,154,48.8z"/>
		<path class="st0" d="M164.9,45.6h11.8v3.2h-8.1V53h6.5v3.2h-6.5v4.4h8.1v3.2h-11.8V45.6z"/>
		<path class="st0" d="M184,45.6h13.4v3.3h-4.8v14.9h-3.7V48.8H184V45.6z"/>
		<path class="st0" d="M199.6,45.6h11.8v3.2h-8.1V53h6.5v3.2h-6.5v4.4h8.1v3.2h-11.8V45.6z"/>
		<path class="st0" d="M225.8,63.5c-1.2,0.3-3.6,0.6-5.3,0.6c-5.6,0-6.9-3-6.9-9.4c0-6.9,1.6-9.4,6.9-9.4c1.9,0,4.2,0.5,5.3,0.7
			l-0.1,2.9c-1.2-0.2-3.5-0.4-4.7-0.4c-2.8,0-3.7,1-3.7,6.1c0,4.9,0.6,6.1,3.8,6.1c1.2,0,3.5-0.2,4.6-0.4L225.8,63.5z"/>
		<path class="st0" d="M228.8,45.6h6.2l4.4,15h0.3v-15h3.7v18.2h-6.1l-4.5-15h-0.3v15h-3.7V45.6z"/>
		<path class="st0" d="M246.5,54.8c0-6.1,1.8-9.5,7.5-9.5c5.7,0,7.5,3.4,7.5,9.5s-1.8,9.3-7.5,9.3C248.4,64.1,246.5,60.9,246.5,54.8
			z M257.8,54.8c0-4.2-0.7-6.3-3.7-6.3s-3.7,2.1-3.7,6.3s0.7,6.1,3.7,6.1S257.8,59,257.8,54.8z"/>
		<path class="st0" d="M264.8,63.8V45.6h3.7v14.9h6.7v3.3H264.8z"/>
		<path class="st0" d="M276.4,54.8c0-6.1,1.8-9.5,7.5-9.5c5.7,0,7.5,3.4,7.5,9.5s-1.8,9.3-7.5,9.3C278.2,64.1,276.4,60.9,276.4,54.8
			z M287.7,54.8c0-4.2-0.7-6.3-3.7-6.3c-3,0-3.7,2.1-3.7,6.3s0.7,6.1,3.7,6.1C286.9,60.9,287.7,59,287.7,54.8z"/>
		<path class="st0" d="M302.2,54h5.3v9.4c0,0-3.8,0.6-6.2,0.6c-5.9,0-7.4-3.3-7.4-9.4c0-6.6,1.9-9.4,7.3-9.4c2.8,0,6.3,0.7,6.3,0.7
			l-0.1,2.9c0,0-3.2-0.3-5.6-0.3c-3.2,0-4.1,1-4.1,6.1c0,4.8,0.7,6.2,4,6.2c1.1,0,2.2-0.1,2.2-0.1v-3.5h-1.7V54z"/>
		<path class="st0" d="M311,45.6h3.7v18.2H311V45.6z"/>
		<path class="st0" d="M321.2,45.6h7l4.1,18.2h-3.7l-0.7-3.3h-6.4l-0.7,3.3h-3.7L321.2,45.6z M322.2,57.3h5l-1.8-8.6H324L322.2,57.3
			z"/>
		<path class="st0" d="M147.9,70.1h11.8v3.2h-8.1v4.2h6.5v3.2h-6.5v4.4h8.1v3.2h-11.8V70.1z"/>
		<path class="st0" d="M162.7,88.3V70.1h6.1c6.3,0,7.7,2.7,7.7,8.7c0,6.2-1.2,9.4-7.7,9.4H162.7z M168.8,73.3h-2.4v11.8h2.4
			c3.6,0,3.9-2.2,3.9-6.2C172.7,74.9,172.4,73.3,168.8,73.3z"/>
		<path class="st0" d="M185.7,85.4c2.2,0,3.2-1,3.2-3.2V70.1h3.7v12c0,4.5-2.4,6.5-6.9,6.5c-4.5,0-6.9-1.9-6.9-6.5v-12h3.7v12.1
			C182.5,84.4,183.6,85.4,185.7,85.4z"/>
		<path class="st0" d="M208,88c-1.2,0.3-3.6,0.6-5.3,0.6c-5.6,0-6.9-3-6.9-9.4c0-6.9,1.6-9.4,6.9-9.4c1.9,0,4.2,0.5,5.3,0.7
			l-0.1,2.9c-1.2-0.2-3.5-0.4-4.7-0.4c-2.8,0-3.7,1-3.7,6.1c0,4.9,0.6,6.1,3.8,6.1c1.2,0,3.5-0.2,4.6-0.4L208,88z"/>
		<path class="st0" d="M213.5,70.1h7l4.1,18.2h-3.7l-0.7-3.3h-6.4l-0.7,3.3h-3.7L213.5,70.1z M214.5,81.8h5l-1.8-8.6h-1.3
			L214.5,81.8z"/>
		<path class="st0" d="M238.3,88c-1.2,0.3-3.6,0.6-5.3,0.6c-5.6,0-6.9-3-6.9-9.4c0-6.9,1.6-9.4,6.9-9.4c1.9,0,4.2,0.5,5.3,0.7
			l-0.1,2.9c-1.2-0.2-3.5-0.4-4.7-0.4c-2.8,0-3.7,1-3.7,6.1c0,4.9,0.6,6.1,3.8,6.1c1.2,0,3.5-0.2,4.6-0.4L238.3,88z"/>
		<path class="st0" d="M241.3,70.1h3.7v18.2h-3.7V70.1z"/>
		<path class="st0" d="M248.2,79.3c0-6.1,1.8-9.5,7.5-9.5c5.7,0,7.5,3.4,7.5,9.5s-1.8,9.3-7.5,9.3C250,88.6,248.2,85.5,248.2,79.3z
			 M259.4,79.3c0-4.2-0.7-6.3-3.7-6.3c-3,0-3.7,2.1-3.7,6.3s0.7,6.1,3.7,6.1C258.7,85.4,259.4,83.5,259.4,79.3z"/>
		<path class="st0" d="M266.4,70.1h6.2l4.4,15h0.3v-15h3.7v18.2h-6.1l-4.5-15h-0.3v15h-3.7V70.1z"/>
		<path class="st0" d="M287.5,70.1h7l4.1,18.2h-3.7l-0.7-3.3h-6.4l-0.7,3.3h-3.7L287.5,70.1z M288.5,81.8h5l-1.8-8.6h-1.3
			L288.5,81.8z"/>
		<path class="st0" d="M301,88.3V70.1h3.7V85h6.7v3.3H301z"/>
	</g>
	<g>
		<g>
			<path class="st0" d="M88,109.7c-0.4,0-0.8-0.1-1.2-0.4L52.2,84.9c-0.5-0.4-0.9-1-0.9-1.7v-70c0-0.8,0.4-1.5,1.1-1.8
				c0.7-0.3,1.5-0.3,2.1,0.1L89.2,36c0.5,0.4,0.9,1,0.9,1.7v70c0,0.8-0.4,1.5-1.1,1.8C88.6,109.7,88.3,109.7,88,109.7z M55.4,82.2
				L86,103.8v-65L55.4,17.1V82.2z"/>
		</g>
		<g>
			<path class="st0" d="M75.9,119.4c-0.4,0-0.8-0.1-1.2-0.4L40,94.6c-0.5-0.4-0.9-1-0.9-1.7v-70c0-0.8,0.4-1.5,1.1-1.8
				c0.7-0.4,1.5-0.3,2.1,0.1L77,45.7c0.5,0.4,0.9,1,0.9,1.7v70c0,0.8-0.4,1.5-1.1,1.8C76.5,119.3,76.2,119.4,75.9,119.4z M43.2,91.8
				l30.6,21.6v-65L43.2,26.8V91.8z"/>
		</g>
		<g>
			<path class="st0" d="M75.9,101.2c-0.4,0-0.8-0.1-1.2-0.4L52.2,84.9c-0.5-0.4-0.9-1-0.9-1.7V31.5c0-0.8,0.4-1.5,1.1-1.8
				c0.7-0.4,1.5-0.3,2.1,0.1L77,45.7c0.5,0.4,0.9,1,0.9,1.7v51.8c0,0.8-0.4,1.5-1.1,1.8C76.5,101.1,76.2,101.2,75.9,101.2z
				 M55.4,82.2l18.4,13V48.4l-18.4-13V82.2z"/>
		</g>
		<g>
			<path class="st0" d="M88,109.7c-0.3,0-0.6-0.1-0.9-0.2c-0.7-0.4-1.1-1-1.1-1.8v-70c0-0.7,0.3-1.3,0.9-1.7l34.7-24.5
				c0.6-0.4,1.4-0.5,2.1-0.1c0.7,0.4,1.1,1,1.1,1.8v70c0,0.7-0.3,1.3-0.9,1.7l-34.7,24.5C88.8,109.6,88.4,109.7,88,109.7z M90,38.7
				v65l30.6-21.6v-65L90,38.7z"/>
		</g>
		<g>
			<path class="st0" d="M6.5,119.4c-0.3,0-0.6-0.1-0.9-0.2c-0.7-0.4-1.1-1-1.1-1.8v-70c0-0.7,0.3-1.3,0.9-1.7L40,21.2
				c0.6-0.4,1.4-0.5,2.1-0.1c0.7,0.4,1.1,1,1.1,1.8v70c0,0.7-0.3,1.3-0.9,1.7L7.7,119C7.3,119.3,6.9,119.4,6.5,119.4z M8.5,48.4v65
				l30.6-21.6v-65L8.5,48.4z"/>
		</g>
	</g>
</g>
</svg>
