<?xml version="1.0" encoding="UTF-8" standalone="no"?>
<!-- Generator: Adobe Illustrator 19.1.1, SVG Export Plug-In . SVG Version: 6.00 Build 0)  -->

<svg
   xmlns:dc="http://purl.org/dc/elements/1.1/"
   xmlns:cc="http://creativecommons.org/ns#"
   xmlns:rdf="http://www.w3.org/1999/02/22-rdf-syntax-ns#"
   xmlns:svg="http://www.w3.org/2000/svg"
   xmlns="http://www.w3.org/2000/svg"
   xmlns:sodipodi="http://sodipodi.sourceforge.net/DTD/sodipodi-0.dtd"
   xmlns:inkscape="http://www.inkscape.org/namespaces/inkscape"
   version="1.1"
   id="Camada_1"
   x="0px"
   y="0px"
   viewBox="0 0 601.2 198.3"
   xml:space="preserve"
   inkscape:version="0.92.4 (5da689c313, 2019-01-14)"
   width="100%"
   height="100%"
   sodipodi:docname="marca_apenas_sigla_branca.svg"><metadata
     id="metadata67"><rdf:RDF><cc:Work
         rdf:about=""><dc:format>image/svg+xml</dc:format><dc:type
           rdf:resource="http://purl.org/dc/dcmitype/StillImage" /><dc:title></dc:title></cc:Work></rdf:RDF></metadata><defs
     id="defs65" /><sodipodi:namedview
     pagecolor="#ffffff"
     bordercolor="#666666"
     borderopacity="1"
     objecttolerance="10"
     gridtolerance="10"
     guidetolerance="10"
     inkscape:pageopacity="0"
     inkscape:pageshadow="2"
     inkscape:window-width="1890"
     inkscape:window-height="1051"
     id="namedview63"
     showgrid="false"
     inkscape:zoom="0.56064909"
     inkscape:cx="-343.81001"
     inkscape:cy="359.12417"
     inkscape:window-x="1080"
     inkscape:window-y="8"
     inkscape:window-maximized="1"
     inkscape:current-layer="g5" /><style
     type="text/css"
     id="style3">
	.st0{fill:#153C4C;}
	.st1{fill:#38AE8A;}
	.st2{fill:#9AD1CC;}
	.st3{fill:#133B4B;}
</style><g
     id="g5"
     transform="translate(-121.1,-198.7)"><g
       id="g7"
       style="fill:#ffffff"><g
         id="g9"
         style="fill:#ffffff"><path
           class="st0"
           d="m 378.9,332.6 v -83 h 17.9 v 5.1 c 0,0 12.1,-7 22.9,-7 23.1,0 28.7,13.1 28.7,40.3 v 44.5 h -17.9 v -44 c 0,-16.6 -2.2,-24.7 -14.8,-24.7 -9.6,0 -18.8,4.3 -18.8,4.3 v 64.4 h -18 z"
           id="path11"
           inkscape:connector-curvature="0"
           style="fill:#ffffff" /></g><g
         id="g13"
         style="fill:#ffffff"><path
           class="st0"
           d="m 485.4,265.1 v 36.5 c 0,12.4 0.5,16.8 9.1,16.8 4.6,0 13.6,-0.5 13.6,-0.5 l 0.8,14.4 c 0,0 -11.1,2.2 -16.9,2.2 -18.8,0 -24.6,-7 -24.6,-30.9 v -38.5 h -10.6 v -15.4 h 10.6 v -24.1 h 17.9 v 24.1 h 22.9 v 15.4 h -22.8 z"
           id="path15"
           inkscape:connector-curvature="0"
           style="fill:#ffffff" /></g><g
         id="g17"
         style="fill:#ffffff"><path
           class="st0"
           d="m 583.9,317.2 0.3,13.4 c 0,0 -18.9,3.8 -33.5,3.8 -24.9,0 -34.5,-13.3 -34.5,-42.5 0,-30.4 13.1,-44.1 36,-44.1 23.2,0 34.9,12.1 34.9,38 l -1.2,12.9 h -51.4 c 0.2,13.3 5.1,19.9 18.9,19.9 13,0.1 30.5,-1.4 30.5,-1.4 z m -14.7,-32.4 c 0,-16.6 -5,-22.1 -17.1,-22.1 -12.3,0 -17.8,6.1 -17.9,22.1 h 35 z"
           id="path19"
           inkscape:connector-curvature="0"
           style="fill:#ffffff" /></g></g><g
       id="g39"
       style="fill:#ffffff"><g
         id="g49"
         style="fill:#ffffff"><g
           id="g55"
           style="fill:#ffffff"><path
             class="st3"
             d="m 251,363.7 c -0.8,0 -1.5,-0.2 -2.1,-0.7 l -41,-28.9 c -1,-0.7 -1.6,-1.8 -1.6,-3 v -94.2 c 0,-1.4 0.8,-2.7 2,-3.3 1.2,-0.6 2.7,-0.5 3.8,0.3 l 41,28.9 c 1,0.7 1.6,1.8 1.6,3 V 360 c 0,1.4 -0.8,2.7 -2,3.3 -0.6,0.3 -1.1,0.4 -1.7,0.4 z m -37.3,-34.5 33.6,23.7 V 267.8 L 213.7,244 v 85.2 z"
             id="path57"
             inkscape:connector-curvature="0"
             style="fill:#ffffff" /></g></g><g
         id="g59"
         style="fill:#ffffff"><path
           class="st3"
           d="m 337.9,200.3 c -1.2,-0.6 -2.7,-0.5 -3.8,0.3 l -61,43 -61,-43 c -1.1,-0.8 -2.6,-0.9 -3.8,-0.3 -1.2,0.6 -2,1.9 -2,3.3 v 26.1 L 190,218.2 c -0.1,-0.1 -0.2,-0.1 -0.2,-0.1 -0.1,0 -0.1,-0.1 -0.2,-0.1 -0.1,0 -0.2,-0.1 -0.2,-0.1 -0.2,-0.1 -0.3,-0.1 -0.5,-0.2 -0.2,0 -0.3,-0.1 -0.5,-0.1 -0.2,0 -0.3,0 -0.5,0 -0.2,0 -0.3,0 -0.5,0 -0.2,0 -0.3,0.1 -0.5,0.1 -0.2,0 -0.3,0.1 -0.5,0.2 -0.1,0 -0.2,0 -0.2,0.1 -0.1,0 -0.1,0.1 -0.2,0.1 -0.1,0 -0.2,0.1 -0.2,0.1 l -63.1,44.6 c -1,0.7 -1.6,1.8 -1.6,3 v 127.5 c 0,1.4 0.8,2.7 2,3.3 0.5,0.3 1.1,0.4 1.7,0.4 0.8,0 1.5,-0.2 2.1,-0.7 l 61,-43 61,43 c 0.6,0.5 1.4,0.7 2.1,0.7 0.6,0 1.2,-0.1 1.7,-0.4 1.2,-0.6 2,-1.9 2,-3.3 v -26.1 l 16.3,11.5 c 0.1,0 0.1,0.1 0.2,0.1 0.1,0 0.1,0.1 0.2,0.2 0.1,0.1 0.3,0.1 0.4,0.1 0.1,0 0.2,0.1 0.3,0.1 0.3,0.1 0.7,0.2 1,0.2 0.3,0 0.7,-0.1 1,-0.2 0.1,0 0.2,-0.1 0.3,-0.1 0.1,-0.1 0.3,-0.1 0.4,-0.1 0.1,0 0.1,-0.1 0.2,-0.2 0.1,0 0.1,-0.1 0.2,-0.1 l 63.1,-44.6 c 1,-0.7 1.6,-1.8 1.6,-3 V 203.6 c 0,-1.4 -0.7,-2.7 -2,-3.3 z M 184.1,346.8 128.4,386.1 V 267.7 l 55.7,-39.3 v 118.4 z m 63.2,39.3 -55.7,-39.3 V 228.4 l 14.7,10.4 v 92.3 c 0,1.2 0.6,2.3 1.6,3 l 39.4,27.8 v 24.2 z m 0,-33.2 -33.6,-23.7 V 244 l 33.6,23.7 v 85.2 z m 22.1,15.6 -14.7,-10.4 v -92.3 c 0,-1.2 -0.6,-2.3 -1.6,-3 L 213.7,235 v -24.2 l 55.7,39.3 v 118.4 z m 63.1,-39.3 -55.7,39.3 V 250.1 l 55.7,-39.3 v 118.4 z"
           id="path61"
           inkscape:connector-curvature="0"
           style="fill:#ffffff" /></g></g></g></svg>