<?xml version="1.0" encoding="UTF-8" standalone="no"?>
<!-- Generator: Adobe Illustrator 19.1.1, SVG Export Plug-In . SVG Version: 6.00 Build 0)  -->

<svg
   xmlns:dc="http://purl.org/dc/elements/1.1/"
   xmlns:cc="http://creativecommons.org/ns#"
   xmlns:rdf="http://www.w3.org/1999/02/22-rdf-syntax-ns#"
   xmlns:svg="http://www.w3.org/2000/svg"
   xmlns="http://www.w3.org/2000/svg"
   xmlns:sodipodi="http://sodipodi.sourceforge.net/DTD/sodipodi-0.dtd"
   xmlns:inkscape="http://www.inkscape.org/namespaces/inkscape"
   version="1.1"
   id="Camada_1"
   x="0px"
   y="0px"
   viewBox="0 0 601.2 198.3"
   xml:space="preserve"
   inkscape:version="0.48.5 r10040"
   width="100%"
   height="100%"
   sodipodi:docname="marca_apenas_sigla.svg"><metadata
     id="metadata67"><rdf:RDF><cc:Work
         rdf:about=""><dc:format>image/svg+xml</dc:format><dc:type
           rdf:resource="http://purl.org/dc/dcmitype/StillImage" /></cc:Work></rdf:RDF></metadata><defs
     id="defs65" /><sodipodi:namedview
     pagecolor="#ffffff"
     bordercolor="#666666"
     borderopacity="1"
     objecttolerance="10"
     gridtolerance="10"
     guidetolerance="10"
     inkscape:pageopacity="0"
     inkscape:pageshadow="2"
     inkscape:window-width="1080"
     inkscape:window-height="1900"
     id="namedview63"
     showgrid="false"
     inkscape:zoom="0.39643877"
     inkscape:cx="420.95"
     inkscape:cy="297.65"
     inkscape:window-x="-2"
     inkscape:window-y="-3"
     inkscape:window-maximized="1"
     inkscape:current-layer="Camada_1" /><style
     type="text/css"
     id="style3">
	.st0{fill:#153C4C;}
	.st1{fill:#38AE8A;}
	.st2{fill:#9AD1CC;}
	.st3{fill:#133B4B;}
</style><g
     id="g5"
     transform="translate(-121.1,-198.7)"><g
       id="g7"><g
         id="g9"><path
           class="st0"
           d="m 378.9,332.6 v -83 h 17.9 v 5.1 c 0,0 12.1,-7 22.9,-7 23.1,0 28.7,13.1 28.7,40.3 v 44.5 h -17.9 v -44 c 0,-16.6 -2.2,-24.7 -14.8,-24.7 -9.6,0 -18.8,4.3 -18.8,4.3 v 64.4 h -18 z"
           id="path11"
           inkscape:connector-curvature="0"
           style="fill:#153c4c" /></g><g
         id="g13"><path
           class="st0"
           d="m 485.4,265.1 v 36.5 c 0,12.4 0.5,16.8 9.1,16.8 4.6,0 13.6,-0.5 13.6,-0.5 l 0.8,14.4 c 0,0 -11.1,2.2 -16.9,2.2 -18.8,0 -24.6,-7 -24.6,-30.9 v -38.5 h -10.6 v -15.4 h 10.6 v -24.1 h 17.9 v 24.1 h 22.9 v 15.4 h -22.8 z"
           id="path15"
           inkscape:connector-curvature="0"
           style="fill:#153c4c" /></g><g
         id="g17"><path
           class="st0"
           d="m 583.9,317.2 0.3,13.4 c 0,0 -18.9,3.8 -33.5,3.8 -24.9,0 -34.5,-13.3 -34.5,-42.5 0,-30.4 13.1,-44.1 36,-44.1 23.2,0 34.9,12.1 34.9,38 l -1.2,12.9 h -51.4 c 0.2,13.3 5.1,19.9 18.9,19.9 13,0.1 30.5,-1.4 30.5,-1.4 z m -14.7,-32.4 c 0,-16.6 -5,-22.1 -17.1,-22.1 -12.3,0 -17.8,6.1 -17.9,22.1 h 35 z"
           id="path19"
           inkscape:connector-curvature="0"
           style="fill:#153c4c" /></g></g><g
       id="g21"><g
         id="g23"><path
           class="st1"
           d="m 613.2,329.7 c 5.5,0 8.6,-2.1 8.6,-7.7 v -24.7 h 3.9 v 24.6 c 0,8.1 -4.4,11.2 -12.5,11.2 -7.8,0 -12.2,-3.1 -12.2,-11.2 v -24.6 h 3.9 V 322 c 0,5.5 3.1,7.7 8.3,7.7 z"
           id="path25"
           inkscape:connector-curvature="0"
           style="fill:#38ae8a" /></g><g
         id="g27"><path
           class="st1"
           d="m 634.1,297.3 h 21.1 v 3.5 H 638 v 13.8 h 14.5 v 3.5 H 638 v 14.6 h -3.9 v -35.4 z"
           id="path29"
           inkscape:connector-curvature="0"
           style="fill:#38ae8a" /></g><g
         id="g31"><path
           class="st1"
           d="m 680.2,301.1 c 0,0 -7.1,-0.9 -10.1,-0.9 -5,0 -7.7,1.8 -7.7,5.8 0,4.6 2.4,5.4 8.6,6.7 7,1.6 10.2,3.3 10.2,9.5 0,7.8 -4.3,10.9 -11.3,10.9 -4.2,0 -11.2,-1.1 -11.2,-1.1 l 0.4,-3.3 c 0,0 6.9,0.9 10.6,0.9 5,0 7.6,-2.2 7.6,-7.1 0,-4 -2.1,-5.1 -7.9,-6.2 -7.3,-1.6 -11,-3.3 -11,-10.1 0,-6.8 4.5,-9.5 11.4,-9.5 4.2,0 10.7,1 10.7,1 l -0.3,3.4 z"
           id="path33"
           inkscape:connector-curvature="0"
           style="fill:#38ae8a" /></g><g
         id="g35"><path
           class="st1"
           d="m 688.1,297.3 h 7.1 l 10,29.9 10,-29.9 h 7.1 v 35.3 h -3.9 v -31.1 h -0.7 l -10.3,29.9 H 703 L 692.7,301.5 H 692 v 31.1 h -3.9 v -35.3 z"
           id="path37"
           inkscape:connector-curvature="0"
           style="fill:#38ae8a" /></g></g><g
       id="g39"><g
         id="g41"><polygon
           class="st2"
           points="273.1,248.2 210,203.6 210,331.1 273.1,375.6 "
           id="polygon43"
           style="fill:#9ad1cc" /></g><g
         id="g45"><polygon
           class="st2"
           points="187.8,348.7 251,393.3 251,265.8 187.8,221.2 "
           id="polygon47"
           style="fill:#9ad1cc" /></g><g
         id="g49"><g
           id="g51"><polygon
             class="st1"
             points="210,236.9 210,331.1 251,360 251,265.8 "
             id="polygon53"
             style="fill:#38ae8a" /></g><g
           id="g55"><path
             class="st3"
             d="m 251,363.7 c -0.8,0 -1.5,-0.2 -2.1,-0.7 l -41,-28.9 c -1,-0.7 -1.6,-1.8 -1.6,-3 v -94.2 c 0,-1.4 0.8,-2.7 2,-3.3 1.2,-0.6 2.7,-0.5 3.8,0.3 l 41,28.9 c 1,0.7 1.6,1.8 1.6,3 V 360 c 0,1.4 -0.8,2.7 -2,3.3 -0.6,0.3 -1.1,0.4 -1.7,0.4 z m -37.3,-34.5 33.6,23.7 V 267.8 L 213.7,244 v 85.2 z"
             id="path57"
             inkscape:connector-curvature="0"
             style="fill:#133b4b" /></g></g><g
         id="g59"><path
           class="st3"
           d="m 337.9,200.3 c -1.2,-0.6 -2.7,-0.5 -3.8,0.3 l -61,43 -61,-43 c -1.1,-0.8 -2.6,-0.9 -3.8,-0.3 -1.2,0.6 -2,1.9 -2,3.3 v 26.1 L 190,218.2 c -0.1,-0.1 -0.2,-0.1 -0.2,-0.1 -0.1,0 -0.1,-0.1 -0.2,-0.1 -0.1,0 -0.2,-0.1 -0.2,-0.1 -0.2,-0.1 -0.3,-0.1 -0.5,-0.2 -0.2,0 -0.3,-0.1 -0.5,-0.1 -0.2,0 -0.3,0 -0.5,0 -0.2,0 -0.3,0 -0.5,0 -0.2,0 -0.3,0.1 -0.5,0.1 -0.2,0 -0.3,0.1 -0.5,0.2 -0.1,0 -0.2,0 -0.2,0.1 -0.1,0 -0.1,0.1 -0.2,0.1 -0.1,0 -0.2,0.1 -0.2,0.1 l -63.1,44.6 c -1,0.7 -1.6,1.8 -1.6,3 v 127.5 c 0,1.4 0.8,2.7 2,3.3 0.5,0.3 1.1,0.4 1.7,0.4 0.8,0 1.5,-0.2 2.1,-0.7 l 61,-43 61,43 c 0.6,0.5 1.4,0.7 2.1,0.7 0.6,0 1.2,-0.1 1.7,-0.4 1.2,-0.6 2,-1.9 2,-3.3 v -26.1 l 16.3,11.5 c 0.1,0 0.1,0.1 0.2,0.1 0.1,0 0.1,0.1 0.2,0.2 0.1,0.1 0.3,0.1 0.4,0.1 0.1,0 0.2,0.1 0.3,0.1 0.3,0.1 0.7,0.2 1,0.2 0.3,0 0.7,-0.1 1,-0.2 0.1,0 0.2,-0.1 0.3,-0.1 0.1,-0.1 0.3,-0.1 0.4,-0.1 0.1,0 0.1,-0.1 0.2,-0.2 0.1,0 0.1,-0.1 0.2,-0.1 l 63.1,-44.6 c 1,-0.7 1.6,-1.8 1.6,-3 V 203.6 c 0,-1.4 -0.7,-2.7 -2,-3.3 z M 184.1,346.8 128.4,386.1 V 267.7 l 55.7,-39.3 v 118.4 z m 63.2,39.3 -55.7,-39.3 V 228.4 l 14.7,10.4 v 92.3 c 0,1.2 0.6,2.3 1.6,3 l 39.4,27.8 v 24.2 z m 0,-33.2 -33.6,-23.7 V 244 l 33.6,23.7 v 85.2 z m 22.1,15.6 -14.7,-10.4 v -92.3 c 0,-1.2 -0.6,-2.3 -1.6,-3 L 213.7,235 v -24.2 l 55.7,39.3 v 118.4 z m 63.1,-39.3 -55.7,39.3 V 250.1 l 55.7,-39.3 v 118.4 z"
           id="path61"
           inkscape:connector-curvature="0"
           style="fill:#133b4b" /></g></g></g></svg>