<?xml version="1.0" encoding="UTF-8" standalone="no"?>
<!-- Generator: Adobe Illustrator 19.1.1, SVG Export Plug-In . SVG Version: 6.00 Build 0)  -->

<svg
   xmlns:dc="http://purl.org/dc/elements/1.1/"
   xmlns:cc="http://creativecommons.org/ns#"
   xmlns:rdf="http://www.w3.org/1999/02/22-rdf-syntax-ns#"
   xmlns:svg="http://www.w3.org/2000/svg"
   xmlns="http://www.w3.org/2000/svg"
   xmlns:sodipodi="http://sodipodi.sourceforge.net/DTD/sodipodi-0.dtd"
   xmlns:inkscape="http://www.inkscape.org/namespaces/inkscape"
   version="1.1"
   id="Camada_1"
   x="0px"
   y="0px"
   viewBox="0 0 607.1 206.4"
   xml:space="preserve"
   inkscape:version="0.48.5 r10040"
   width="100%"
   height="100%"
   sodipodi:docname="marca_principal_horizontal.svg"><metadata
     id="metadata175"><rdf:RDF><cc:Work
         rdf:about=""><dc:format>image/svg+xml</dc:format><dc:type
           rdf:resource="http://purl.org/dc/dcmitype/StillImage" /><dc:title></dc:title></cc:Work></rdf:RDF></metadata><defs
     id="defs173" /><sodipodi:namedview
     pagecolor="#ffffff"
     bordercolor="#666666"
     borderopacity="1"
     objecttolerance="10"
     gridtolerance="10"
     guidetolerance="10"
     inkscape:pageopacity="0"
     inkscape:pageshadow="2"
     inkscape:window-width="1080"
     inkscape:window-height="1900"
     id="namedview171"
     showgrid="false"
     inkscape:zoom="0.39643877"
     inkscape:cx="420.95"
     inkscape:cy="297.65"
     inkscape:window-x="-2"
     inkscape:window-y="-3"
     inkscape:window-maximized="1"
     inkscape:current-layer="Camada_1" /><style
     type="text/css"
     id="style3">
	.st0{fill:#153C4C;}
	.st1{fill:#38AE8A;}
	.st2{fill:#9AD1CC;}
	.st3{fill:#133B4B;}
</style><g
     id="g5"
     transform="translate(-117.50002,-171.29999)"><g
       id="g7"><g
         id="g9"><g
           id="g11"><path
             class="st0"
             d="m 383.5,183.1 h 7.1 l 13.1,30.9 h 1 v -30.9 h 3.8 v 34.3 h -7 l -13.3,-30.9 h -0.9 v 30.9 h -3.8 v -34.3 z"
             id="path13"
             inkscape:connector-curvature="0"
             style="fill:#153c4c" /></g><g
           id="g15"><path
             class="st0"
             d="m 428.6,214.5 c 5.3,0 8.4,-2.1 8.4,-7.4 v -24 h 3.8 V 207 c 0,7.8 -4.3,10.9 -12.1,10.9 -7.5,0 -11.8,-3 -11.8,-10.9 v -23.9 h 3.8 v 24 c -0.1,5.3 2.8,7.4 7.9,7.4 z m 4.7,-43.2 1.3,3.3 -10.8,4.3 -1.1,-2.6 10.6,-5 z"
             id="path17"
             inkscape:connector-curvature="0"
             style="fill:#153c4c" /></g><g
           id="g19"><path
             class="st0"
             d="m 469.6,216.9 c -2.4,0.5 -6.2,1 -9.5,1 -10.2,0 -12.5,-6.2 -12.5,-17.5 0,-11.6 2.2,-17.7 12.5,-17.7 3.5,0 7.3,0.6 9.5,1.1 l -0.1,3.2 c -2.2,-0.4 -6.2,-0.9 -8.9,-0.9 -7.6,0 -9,4.6 -9,14.3 0,9.6 1.2,14.1 9.1,14.1 2.8,0 6.4,-0.4 8.8,-0.9 l 0.1,3.3 z"
             id="path21"
             inkscape:connector-curvature="0"
             style="fill:#153c4c" /></g><g
           id="g23"><path
             class="st0"
             d="m 475.8,217.4 v -34.3 h 3.8 V 214 h 15 v 3.4 h -18.8 z"
             id="path25"
             inkscape:connector-curvature="0"
             style="fill:#153c4c" /></g><g
           id="g27"><path
             class="st0"
             d="m 499.5,183.1 h 20.8 v 3.4 h -17 v 11.8 h 14.1 v 3.3 H 503.3 V 214 h 17 v 3.4 h -20.8 v -34.3 z"
             id="path29"
             inkscape:connector-curvature="0"
             style="fill:#153c4c" /></g><g
           id="g31"><path
             class="st0"
             d="m 525.1,200.4 c 0,-11.3 2.9,-17.8 13.5,-17.8 10.6,0 13.6,6.4 13.6,17.8 0,11.8 -2.9,17.5 -13.6,17.5 -10.6,0 -13.5,-6 -13.5,-17.5 z m 23.1,0 c 0,-9.3 -1.8,-14.4 -9.6,-14.4 -7.9,0 -9.6,5.1 -9.6,14.4 0,9.4 1.7,14.1 9.6,14.1 8,0 9.6,-4.4 9.6,-14.1 z"
             id="path33"
             inkscape:connector-curvature="0"
             style="fill:#153c4c" /></g><g
           id="g35"><path
             class="st0"
             d="m 383,262.9 v -33.7 h 11.3 c 11.7,0 14.3,5 14.3,16.2 0,11.5 -2.2,17.5 -14.3,17.5 H 383 z m 11.3,-27.7 h -4.5 V 257 h 4.5 c 6.6,0 7.3,-4.1 7.3,-11.5 0,-7.5 -0.6,-10.3 -7.3,-10.3 z"
             id="path37"
             inkscape:connector-curvature="0"
             style="fill:#153c4c" /></g><g
           id="g39"><path
             class="st0"
             d="m 414.6,229.2 h 21.8 v 5.9 h -15 v 7.9 h 12 v 5.8 h -12 v 8.1 h 15 v 5.9 h -21.8 v -33.6 z"
             id="path41"
             inkscape:connector-curvature="0"
             style="fill:#153c4c" /></g><g
           id="g43"><path
             class="st0"
             d="m 449.9,229.2 h 24.8 v 6 h -8.9 v 27.6 H 459 v -27.6 h -9 v -6 z"
             id="path45"
             inkscape:connector-curvature="0"
             style="fill:#153c4c" /></g><g
           id="g47"><path
             class="st0"
             d="m 478.9,229.2 h 21.8 v 5.9 h -14.9 v 7.9 h 12 v 5.8 h -12 v 8.1 h 14.9 v 5.9 h -21.8 v -33.6 z"
             id="path49"
             inkscape:connector-curvature="0"
             style="fill:#153c4c" /></g><g
           id="g51"><path
             class="st0"
             d="m 527.4,262.3 c -2.3,0.5 -6.7,1.1 -9.8,1.1 -10.4,0 -12.9,-5.6 -12.9,-17.4 0,-12.8 2.9,-17.4 12.9,-17.4 3.5,0 7.8,0.8 9.9,1.3 l -0.2,5.4 c -2.3,-0.3 -6.4,-0.7 -8.7,-0.7 -5.2,0 -6.8,1.8 -6.8,11.4 0,9.1 1.2,11.4 7,11.4 2.3,0 6.5,-0.4 8.5,-0.7 l 0.1,5.6 z"
             id="path53"
             inkscape:connector-curvature="0"
             style="fill:#153c4c" /></g><g
           id="g55"><path
             class="st0"
             d="m 533,229.2 h 11.5 l 8.1,27.7 h 0.5 v -27.7 h 6.8 v 33.7 h -11.2 l -8.4,-27.7 h -0.5 v 27.7 H 533 v -33.7 z"
             id="path57"
             inkscape:connector-curvature="0"
             style="fill:#153c4c" /></g><g
           id="g59"><path
             class="st0"
             d="m 565.8,246.2 c 0,-11.4 3.4,-17.6 14,-17.6 10.6,0 14,6.2 14,17.6 0,11.4 -3.4,17.2 -14,17.2 -10.6,0.1 -14,-5.8 -14,-17.2 z m 20.9,0 c 0,-7.8 -1.4,-11.7 -6.9,-11.7 -5.5,0 -6.9,3.9 -6.9,11.7 0,7.8 1.4,11.3 6.9,11.3 5.5,0 6.9,-3.5 6.9,-11.3 z"
             id="path61"
             inkscape:connector-curvature="0"
             style="fill:#153c4c" /></g><g
           id="g63"><path
             class="st0"
             d="m 599.5,262.9 v -33.7 h 6.8 v 27.6 h 12.3 v 6 h -19.1 z"
             id="path65"
             inkscape:connector-curvature="0"
             style="fill:#153c4c" /></g><g
           id="g67"><path
             class="st0"
             d="m 621.1,246.2 c 0,-11.4 3.4,-17.6 14,-17.6 10.6,0 14,6.2 14,17.6 0,11.4 -3.4,17.2 -14,17.2 -10.6,0.1 -14,-5.8 -14,-17.2 z m 20.9,0 c 0,-7.8 -1.4,-11.7 -6.9,-11.7 -5.5,0 -6.9,3.9 -6.9,11.7 0,7.8 1.4,11.3 6.9,11.3 5.5,0 6.9,-3.5 6.9,-11.3 z"
             id="path69"
             inkscape:connector-curvature="0"
             style="fill:#153c4c" /></g><g
           id="g71"><path
             class="st0"
             d="m 668.9,244.9 h 9.8 v 17.5 c 0,0 -7.1,1.1 -11.5,1.1 -11,0 -13.8,-6.1 -13.8,-17.4 0,-12.3 3.6,-17.4 13.5,-17.4 5.2,0 11.7,1.4 11.7,1.4 l -0.2,5.3 c 0,0 -5.9,-0.6 -10.4,-0.6 -5.8,0 -7.6,1.9 -7.6,11.4 0,9 1.2,11.5 7.4,11.5 2,0 4.1,-0.2 4.1,-0.2 V 251 h -3.1 v -6.1 z"
             id="path73"
             inkscape:connector-curvature="0"
             style="fill:#153c4c" /></g><g
           id="g75"><path
             class="st0"
             d="m 685.1,229.2 h 6.8 v 33.7 h -6.8 v -33.7 z"
             id="path77"
             inkscape:connector-curvature="0"
             style="fill:#153c4c" /></g><g
           id="g79"><path
             class="st0"
             d="m 704,229.2 h 13 l 7.6,33.7 h -6.8 l -1.3,-6.1 h -11.8 l -1.3,6.1 h -6.8 l 7.4,-33.7 z m 1.9,21.6 h 9.2 l -3.4,-16 h -2.4 l -3.4,16 z"
             id="path81"
             inkscape:connector-curvature="0"
             style="fill:#153c4c" /></g><g
           id="g83"><path
             class="st0"
             d="m 383,274.7 h 21.8 v 5.9 h -14.9 v 7.9 h 12 v 5.8 h -12 v 8.1 h 14.9 v 5.9 H 383 v -33.6 z"
             id="path85"
             inkscape:connector-curvature="0"
             style="fill:#153c4c" /></g><g
           id="g87"><path
             class="st0"
             d="m 410.4,308.4 v -33.7 h 11.3 c 11.7,0 14.3,5 14.3,16.2 0,11.5 -2.2,17.5 -14.3,17.5 h -11.3 z m 11.4,-27.8 h -4.5 v 21.8 h 4.5 c 6.6,0 7.3,-4.1 7.3,-11.5 -0.1,-7.4 -0.7,-10.3 -7.3,-10.3 z"
             id="path89"
             inkscape:connector-curvature="0"
             style="fill:#153c4c" /></g><g
           id="g91"><path
             class="st0"
             d="m 453.2,303 c 4,0 6,-1.9 6,-5.9 V 274.7 H 466 V 297 c 0,8.4 -4.4,12 -12.8,12 -8.4,0 -12.8,-3.6 -12.8,-12 v -22.3 h 6.8 v 22.4 c 0,4 2,5.9 6,5.9 z"
             id="path93"
             inkscape:connector-curvature="0"
             style="fill:#153c4c" /></g><g
           id="g95"><path
             class="st0"
             d="m 494.3,307.8 c -2.3,0.5 -6.7,1.1 -9.8,1.1 -10.4,0 -12.9,-5.6 -12.9,-17.4 0,-12.8 2.9,-17.4 12.9,-17.4 3.5,0 7.8,0.8 9.9,1.3 l -0.2,5.4 c -2.3,-0.3 -6.4,-0.7 -8.7,-0.7 -5.2,0 -6.8,1.8 -6.8,11.4 0,9.1 1.2,11.4 7,11.4 2.3,0 6.5,-0.4 8.5,-0.7 l 0.1,5.6 z"
             id="path97"
             inkscape:connector-curvature="0"
             style="fill:#153c4c" /></g><g
           id="g99"><path
             class="st0"
             d="m 504.6,274.7 h 13 l 7.6,33.7 h -6.8 l -1.3,-6.1 h -11.8 l -1.3,6.1 h -6.8 l 7.4,-33.7 z m 1.9,21.6 h 9.2 l -3.4,-16 h -2.4 l -3.4,16 z"
             id="path101"
             inkscape:connector-curvature="0"
             style="fill:#153c4c" /></g><g
           id="g103"><path
             class="st0"
             d="m 550.6,307.8 c -2.3,0.5 -6.7,1.1 -9.8,1.1 -10.4,0 -12.9,-5.6 -12.9,-17.4 0,-12.8 2.9,-17.4 12.9,-17.4 3.5,0 7.8,0.8 9.9,1.3 l -0.2,5.4 c -2.3,-0.3 -6.4,-0.7 -8.7,-0.7 -5.2,0 -6.8,1.8 -6.8,11.4 0,9.1 1.2,11.4 7,11.4 2.3,0 6.5,-0.4 8.5,-0.7 l 0.1,5.6 z"
             id="path105"
             inkscape:connector-curvature="0"
             style="fill:#153c4c" /></g><g
           id="g107"><path
             class="st0"
             d="m 556.1,274.7 h 6.8 v 33.7 h -6.8 v -33.7 z"
             id="path109"
             inkscape:connector-curvature="0"
             style="fill:#153c4c" /></g><g
           id="g111"><path
             class="st0"
             d="m 568.8,291.7 c 0,-11.4 3.4,-17.6 14,-17.6 10.6,0 14,6.2 14,17.6 0,11.4 -3.4,17.2 -14,17.2 -10.6,0 -14,-5.8 -14,-17.2 z m 20.9,0 c 0,-7.8 -1.4,-11.7 -6.9,-11.7 -5.5,0 -6.9,3.9 -6.9,11.7 0,7.8 1.4,11.3 6.9,11.3 5.5,0 6.9,-3.5 6.9,-11.3 z"
             id="path113"
             inkscape:connector-curvature="0"
             style="fill:#153c4c" /></g><g
           id="g115"><path
             class="st0"
             d="m 602.6,274.7 h 11.5 l 8.1,27.7 h 0.5 v -27.7 h 6.8 v 33.7 h -11.2 l -8.4,-27.7 h -0.5 v 27.7 h -6.8 v -33.7 z"
             id="path117"
             inkscape:connector-curvature="0"
             style="fill:#153c4c" /></g><g
           id="g119"><path
             class="st0"
             d="m 641.6,274.7 h 13 l 7.6,33.7 h -6.8 l -1.3,-6.1 h -11.8 l -1.3,6.1 h -7 l 7.6,-33.7 z m 1.9,21.6 h 9.2 l -3.4,-16 h -2.4 l -3.4,16 z"
             id="path121"
             inkscape:connector-curvature="0"
             style="fill:#153c4c" /></g><g
           id="g123"><path
             class="st0"
             d="m 666.6,308.4 v -33.7 h 6.8 v 27.6 h 12.3 v 6 h -19.1 z"
             id="path125"
             inkscape:connector-curvature="0"
             style="fill:#153c4c" /></g></g><g
         id="g127"><g
           id="g129"><path
             class="st1"
             d="m 395.1,372.3 c 5.3,0 8.4,-2.1 8.4,-7.4 v -24 h 3.8 v 23.9 c 0,7.8 -4.3,10.9 -12.1,10.9 -7.5,0 -11.8,-3 -11.8,-10.9 v -23.9 h 3.8 v 24 c -0.1,5.3 2.9,7.4 7.9,7.4 z"
             id="path131"
             inkscape:connector-curvature="0"
             style="fill:#38ae8a" /></g><g
           id="g133"><path
             class="st1"
             d="m 415.4,340.9 h 20.5 v 3.4 h -16.7 v 13.4 h 14.1 v 3.4 h -14.1 v 14.2 h -3.8 v -34.4 z"
             id="path135"
             inkscape:connector-curvature="0"
             style="fill:#38ae8a" /></g><g
           id="g137"><path
             class="st1"
             d="m 460.2,344.6 c 0,0 -6.9,-0.8 -9.8,-0.8 -4.9,0 -7.4,1.7 -7.4,5.6 0,4.5 2.4,5.2 8.4,6.5 6.8,1.5 9.9,3.2 9.9,9.2 0,7.6 -4.2,10.5 -10.9,10.5 -4.1,0 -10.8,-1.1 -10.8,-1.1 l 0.4,-3.2 c 0,0 6.7,0.9 10.2,0.9 4.9,0 7.3,-2.1 7.3,-6.9 0,-3.9 -2,-4.9 -7.6,-6 -7.1,-1.5 -10.6,-3.2 -10.6,-9.8 0,-6.6 4.4,-9.2 11,-9.2 4.1,0 10.3,1 10.3,1 l -0.4,3.3 z"
             id="path139"
             inkscape:connector-curvature="0"
             style="fill:#38ae8a" /></g><g
           id="g141"><path
             class="st1"
             d="m 467.8,340.9 h 6.9 l 9.7,29 9.7,-29 h 6.9 v 34.3 h -3.8 V 345 h -0.7 l -10,29 h -4.3 l -10,-29 h -0.7 v 30.2 h -3.8 v -34.3 z"
             id="path143"
             inkscape:connector-curvature="0"
             style="fill:#38ae8a" /></g></g><g
         id="g145"><rect
           x="382.5"
           y="322.39999"
           class="st0"
           width="342"
           height="5.0999999"
           id="rect147"
           style="fill:#153c4c" /></g></g><g
       id="g149"><g
         id="g151"><polygon
           class="st2"
           points="272.1,226.4 207.8,181 207.8,310.8 272.1,356.1 "
           id="polygon153"
           style="fill:#9ad1cc" /></g><g
         id="g155"><polygon
           class="st2"
           points="185.3,328.7 249.6,374.1 249.6,244.3 185.3,199 "
           id="polygon157"
           style="fill:#9ad1cc" /></g><g
         id="g159"><polygon
           class="st1"
           points="207.8,214.9 207.8,310.8 249.6,340.2 249.6,244.3 "
           id="polygon161"
           style="fill:#38ae8a" /></g><g
         id="g163"><path
           class="st3"
           d="m 249.6,344 c -0.8,0 -1.5,-0.2 -2.2,-0.7 l -41.7,-29.5 c -1,-0.7 -1.6,-1.9 -1.6,-3.1 v -95.9 c 0,-1.4 0.8,-2.7 2,-3.4 1.3,-0.6 2.8,-0.5 3.9,0.3 l 41.7,29.5 c 1,0.7 1.6,1.9 1.6,3.1 v 95.9 c 0,1.4 -0.8,2.7 -2,3.4 -0.5,0.3 -1.1,0.4 -1.7,0.4 z m -38,-35.2 34.2,24.1 v -86.6 l -34.2,-24.1 v 86.6 z"
           id="path165"
           inkscape:connector-curvature="0"
           style="fill:#133b4b" /></g><g
         id="g167"><path
           class="st0"
           d="m 338.1,177.7 c -1.3,-0.6 -2.8,-0.5 -3.9,0.3 L 272.1,221.8 210,177.9 c -1.2,-0.8 -2.7,-0.9 -3.9,-0.3 -1.3,0.6 -2,1.9 -2,3.4 v 26.5 l -16.6,-11.7 c -0.1,-0.1 -0.2,-0.1 -0.2,-0.1 -0.1,0 -0.1,-0.1 -0.2,-0.1 -0.1,0 -0.2,-0.1 -0.2,-0.1 -0.2,-0.1 -0.3,-0.1 -0.5,-0.2 -0.2,0 -0.3,-0.1 -0.5,-0.1 -0.2,0 -0.3,0 -0.5,0 -0.2,0 -0.3,0 -0.5,0 -0.2,0 -0.3,0.1 -0.5,0.1 -0.2,0 -0.3,0.1 -0.5,0.2 -0.1,0 -0.2,0 -0.2,0.1 -0.1,0 -0.1,0.1 -0.2,0.1 -0.1,0 -0.2,0.1 -0.2,0.1 l -64.2,45.3 c -1,0.7 -1.6,1.9 -1.6,3.1 v 129.7 c 0,1.4 0.8,2.7 2,3.4 0.5,0.3 1.1,0.4 1.7,0.4 0.8,0 1.5,-0.2 2.2,-0.7 l 62.1,-43.8 62.1,43.8 c 0.6,0.5 1.4,0.7 2.2,0.7 0.6,0 1.2,-0.1 1.7,-0.4 1.3,-0.6 2,-1.9 2,-3.4 v -26.5 l 16.6,11.7 c 0.1,0 0.1,0.1 0.2,0.1 0.1,0.1 0.1,0.1 0.2,0.2 0.1,0.1 0.3,0.1 0.4,0.2 0.1,0 0.2,0.1 0.3,0.1 0.3,0.1 0.7,0.2 1,0.2 0.3,0 0.7,-0.1 1,-0.2 0.1,0 0.2,-0.1 0.3,-0.1 0.1,-0.1 0.3,-0.1 0.4,-0.2 0.1,0 0.2,-0.1 0.2,-0.2 0.1,0 0.1,-0.1 0.2,-0.1 l 64.2,-45.3 c 1,-0.7 1.6,-1.9 1.6,-3.1 V 181 c 0,-1.4 -0.8,-2.7 -2,-3.3 z m -156.6,149 -56.7,40 V 246.3 l 56.7,-40 v 120.4 z m 64.3,40.1 -56.7,-40 V 206.3 l 15,10.6 v 93.9 c 0,1.2 0.6,2.4 1.6,3.1 l 40.1,28.3 v 24.6 z m 0,-33.9 -34.2,-24.1 v -86.6 l 34.2,24.1 v 86.6 z m 22.5,15.9 -15,-10.6 v -93.9 c 0,-1.2 -0.6,-2.4 -1.6,-3.1 l -40.1,-28.3 v -24.6 l 56.7,40 v 120.5 z m 64.2,-40 -56.7,40 V 228.3 l 56.7,-40 v 120.5 z"
           id="path169"
           inkscape:connector-curvature="0"
           style="fill:#153c4c" /></g></g></g></svg>