<?xml version="1.0" encoding="UTF-8" standalone="no"?>
<svg
   xmlns:dc="http://purl.org/dc/elements/1.1/"
   xmlns:cc="http://creativecommons.org/ns#"
   xmlns:rdf="http://www.w3.org/1999/02/22-rdf-syntax-ns#"
   xmlns:svg="http://www.w3.org/2000/svg"
   xmlns="http://www.w3.org/2000/svg"
   xmlns:sodipodi="http://sodipodi.sourceforge.net/DTD/sodipodi-0.dtd"
   xmlns:inkscape="http://www.inkscape.org/namespaces/inkscape"
   id="Camada_1"
   data-name="Camada 1"
   viewBox="0 0 41 13"
   version="1.1"
   sodipodi:docname="monograma.ufsm.svg"
   inkscape:version="0.92.4 (5da689c313, 2019-01-14)"
   width="41"
   height="13">
  <metadata
     id="metadata31">
    <rdf:RDF>
      <cc:Work
         rdf:about="">
        <dc:format>image/svg+xml</dc:format>
        <dc:type
           rdf:resource="http://purl.org/dc/dcmitype/StillImage" />
        <dc:title>Brasão e monograma - Arquivo Ai</dc:title>
      </cc:Work>
    </rdf:RDF>
  </metadata>
  <sodipodi:namedview
     pagecolor="#ffffff"
     bordercolor="#666666"
     borderopacity="1"
     objecttolerance="10"
     gridtolerance="10"
     guidetolerance="10"
     inkscape:pageopacity="0"
     inkscape:pageshadow="2"
     inkscape:window-width="1890"
     inkscape:window-height="1051"
     id="namedview29"
     showgrid="false"
     inkscape:zoom="7.4167644"
     inkscape:cx="10.134747"
     inkscape:cy="35.881363"
     inkscape:window-x="1080"
     inkscape:window-y="8"
     inkscape:window-maximized="1"
     inkscape:current-layer="Camada_1" />
  <defs
     id="defs4">
    <style
       id="style2">.cls-1{fill:#fff;}.cls-1,.cls-2,.cls-3,.cls-4,.cls-5,.cls-6,.cls-7,.cls-8{fill-rule:evenodd;}.cls-2{fill:#231f20;}.cls-3{fill:#d09910;}.cls-4{fill:#a46e08;}.cls-5{fill:#005387;}.cls-6{fill:#e6e7e8;}.cls-7{fill:#bcbec0;}.cls-8{fill:#f58220;}</style>
  </defs>
  <title
     id="title6">Brasão e monograma - Arquivo Ai</title>
  <path
     class="cls-1"
     d="m 1.71,0.97594006 h 0.34 0.37 a 2.62,2.62 0 0 0 0.41,0 h 0.35 c 0,1.38000004 0,2.61000004 0,3.69000004 0,1.08 0,1.81 0,2.18 a 10.53,10.53 0 0 0 0.17,2.2 3.26,3.26 0 0 0 0.62,1.2799999 2.7,2.7 0 0 0 1.12,0.81 3.9,3.9 0 0 0 1.53,0.28 3.79,3.79 0 0 0 1.53,-0.29 2.8,2.8 0 0 0 1.13,-0.83 3.35,3.35 0 0 0 0.61,-1.3899999 16.07,16.07 0 0 0 0.13,-2.86 c 0,-0.92 0,-1.79 0,-2.63 0,-0.84 0,-1.64 -0.05,-2.42000004 h 0.24 0.26 a 1.37,1.37 0 0 0 0.29,0 H 11 Q 11,1.9959401 10.94,2.7659401 c 0,0.54 0,0.93 0,1.17 v 0.41 a 40.62,40.62 0 0 1 -0.15,4.2 4.78,4.78 0 0 1 -0.52,1.7599999 3.69,3.69 0 0 1 -1.54,1.44 5.45,5.45 0 0 1 -2.39,0.48 4.66,4.66 0 0 1 -3.53,-1.18 5.28,5.28 0 0 1 -1.1,-3.6999999 q 0,-0.09 0,-1.2 c 0,-0.74 0,-1.45 0,-2.12 0,-0.51 0,-1.37 -0.06,-2.61 0,-0.19 0,-0.34 0,-0.44000004 z M 12.81,11.97594 c 0.05,-0.56 0.09,-1.18 0.11,-1.85 0.02,-0.6699999 0,-1.4099999 0,-2.2499999 0,-1.15 0,-2.31 0,-3.46 0,-1.15 -0.06,-2.3 -0.1,-3.46000004 h 0.74 3.44 1.58 c 0,0.06 0,0.15000004 0,0.27000004 0,0.12 0,0.21 0,0.27 0,0.06 0,0.14 0,0.25 0,0.11 0,0.2 0,0.26 a 10,10 0 0 0 -1.44,-0.18 c -0.6,0 -1.42,-0.07 -2.45,-0.09 h -0.34 c 0,0.3 0,0.63 0,1 0,0.37 0,0.83 0,1.46 v 1.62 h 1.28 c 0.52,0 1,0 1.43,0 0.43,0 0.87,-0.06 1.3,-0.11 a 1.09,1.09 0 0 1 0,0.18 c 0,0.07 0,0.18 0,0.31 0,0.13 0,0.22 0,0.28 a 0.91,0.91 0 0 0 0,0.17 l -2.17,-0.1 H 14.81 14.35 V 10.25594 c 0,0.6 0,1 0,1.24 a 4.16,4.16 0 0 0 0,0.55 h -0.39 -0.79 -0.33 z m 6.38,-0.65 a 6.7,6.7 0 0 0 0.23,-0.85 c 0.06,-0.29 0.1,-0.5799999 0.13,-0.8599999 a 3,3 0 0 0 1.05,1.4299999 2.77,2.77 0 0 0 1.61,0.5 2.25,2.25 0 0 0 1.68,-0.64 2.37,2.37 0 0 0 0.63,-1.7299999 1.94,1.94 0 0 0 -0.37,-1.21 3,3 0 0 0 -1.27,-0.82 l -1.3,-0.55 a 4,4 0 0 1 -1.63,-1.11 2.49,2.49 0 0 1 -0.51,-1.6 2.91,2.91 0 0 1 0.91,-2.23 3.49,3.49 0 0 1 2.46,-0.87000004 5.16,5.16 0 0 1 1.25,0.15 5.29,5.29 0 0 1 1.2,0.44000004 6.14,6.14 0 0 0 -0.23,0.57 4.94,4.94 0 0 0 -0.22,0.68 2.81,2.81 0 0 0 -1,-0.93 2.46,2.46 0 0 0 -1.24,-0.32 1.88,1.88 0 0 0 -1.41,0.54 2,2 0 0 0 -0.53,1.46 1.71,1.71 0 0 0 0.38,1.13 3.16,3.16 0 0 0 1.34,0.84 l 1.31,0.57 a 3.91,3.91 0 0 1 1.59,1.13 2.68,2.68 0 0 1 0.49,1.66 3.26,3.26 0 0 1 -1.05,2.5299999 4,4 0 0 1 -2.79,1 4.73,4.73 0 0 1 -1.48,-0.22 4,4 0 0 1 -1.23,-0.64 z m 7.47,0.65 c 0.2,-0.89 0.42,-2.1799999 0.68,-3.8699999 0.26,-1.69 0.58,-4.14 1,-7.35000004 h 0.27 c 0.95,1.91000004 1.79,3.55000004 2.5,4.93000004 0.71,1.38 1.39,2.66 2,3.82 q 1.06,-1.86 2.22,-4 1.16,-2.14 2.55,-4.75000004 h 0.22 c 0.14,1.41000004 0.32,3.00000004 0.51,4.73000004 l 0.74,6.5599999 -0.37,-0.06 a 2.11,2.11 0 0 0 -0.35,0 2,2 0 0 0 -0.34,0 l -0.38,0.06 c -0.13,-1.89 -0.28,-3.5499999 -0.43,-4.9999999 -0.15,-1.45 -0.28,-2.45 -0.41,-3.07 q -1.5,2.5 -2.59,4.65 A 28.93,28.93 0 0 0 32.94,12.00594 h -0.22 a 10.49,10.49 0 0 0 -0.53,-1.4 c -0.24,-0.52 -0.57,-1.1699999 -1,-1.9999999 l -2.51,-4.64 c -0.25,1.73 -0.44,3.29 -0.57,4.67 C 27.98,10.01594 27.9,11.14594 27.89,11.99594 l -0.31,-0.06 a 1.37,1.37 0 0 0 -0.29,0 1.46,1.46 0 0 0 -0.29,0 z"
     id="path26"
     style="fill:#005387;fill-opacity:1;fill-rule:evenodd"
     inkscape:connector-curvature="0" />
</svg>
